<?xml version="1.0" encoding="utf-8"?>
<!-- Generator: Adobe Illustrator 16.0.0, SVG Export Plug-In . SVG Version: 6.00 Build 0)  -->
<!DOCTYPE svg PUBLIC "-//W3C//DTD SVG 1.1//EN" "http://www.w3.org/Graphics/SVG/1.1/DTD/svg11.dtd">
<svg version="1.1" xmlns="http://www.w3.org/2000/svg" xmlns:xlink="http://www.w3.org/1999/xlink" x="0px" y="0px"
	 width="335.986px" height="235.19px" viewBox="0 0 335.986 235.19" enable-background="new 0 0 335.986 235.19"
	 xml:space="preserve">
<g id="bg">
	<g>
		<g>
			<rect y="-0.035" fill="#F5F5F5" width="335.986" height="235.189"/>
		</g>
	</g>
	<path fill="#5A5A5A" d="M48.576,107.699c-0.006,1.551-1.596,2.801-3.549,2.791l-4.197-0.022c-1.953-0.009-3.53-1.274-3.521-2.825
		l0.082-25.986c0.008-1.549,1.598-2.799,3.55-2.789l4.198,0.021c1.953,0.011,3.529,1.275,3.521,2.826L48.576,107.699z"/>
	<path id="XMLID_726_" fill="#5A5A5A" d="M27.914,27.75c-8.512,8.643-8.492,22.516,0.047,30.924c3.35,3.299,7.52,5.268,11.865,5.929
		l0.02,42.403c0,0.875,0.357,1.668,0.936,2.236c0.568,0.561,1.348,0.904,2.207,0.902c1.734-0.001,3.141-1.408,3.139-3.143
		l-0.02-42.352c4.676-0.637,9.199-2.77,12.775-6.402c8.514-8.643,8.492-22.516-0.047-30.925S36.426,19.105,27.914,27.75z
		 M31.891,31.667c6.354-6.45,16.682-6.613,23.027-0.364c6.344,6.248,6.34,16.578-0.014,23.029c-6.35,6.449-16.68,6.611-23.025,0.363
		C25.535,48.447,25.539,38.117,31.891,31.667z"/>
	<circle fill="#DCDBDD" cx="43.655" cy="42.917" r="18.047"/>
	<g>
		<circle fill="#E0E1E3" cx="283.609" cy="189.419" r="28.448"/>
	</g>
	<g>
		<circle fill="#FFFFFF" cx="283.502" cy="189.42" r="21.171"/>
	</g>
	<g>
		<circle fill="#4E4E4E" cx="283.503" cy="189.419" r="17.464"/>
	</g>
	<g>
		<circle fill="#868686" cx="284.319" cy="181.097" r="3.799"/>
	</g>
	<g>
		<circle fill="#868686" cx="289.868" cy="189.421" r="2.359"/>
	</g>
	<g>
		<path fill="#FFFFFF" d="M307.732,200.064c-0.498,1.101-1.527,1.709-2.295,1.358l-3.898-1.771c-0.77-0.35-0.984-1.522-0.484-2.623
			l0,0c0.498-1.1,1.527-1.707,2.297-1.358l3.895,1.771C308.014,197.791,308.23,198.965,307.732,200.064L307.732,200.064z"/>
	</g>
	<g>
		<path fill="#D1D3D4" d="M193.116,179.867c0,0-2.202-2.286-4.974-4.767c-2.769-2.48-2.38-4.303-2.38-4.303l-0.747-9.892h-17.047
			h-0.854h-17.049l-0.744,9.892c0,0,0.391,1.822-2.382,4.303c-2.77,2.48-4.971,4.767-4.971,4.767s-0.32,0.553-0.32,1.337
			c0,0.782,0.462,0.817,2.378,0.817c1.696,0,19.034,0,23.088,0c0.54,0,0.854,0,0.854,0c4.053,0,21.391,0,23.086,0
			c1.918,0,2.379-0.035,2.379-0.817C193.434,180.42,193.116,179.867,193.116,179.867z"/>
		<path fill="#CECDCF" d="M193.116,179.867c0,0-2.202-2.286-4.974-4.767c-2.769-2.48-2.38-4.303-2.38-4.303l-0.747-9.892h-17.047
			h-0.854h-17.049l-0.744,9.892c0,0,0.391,1.822-2.382,4.303c-2.77,2.48-4.971,4.767-4.971,4.767s-0.32,0.553-0.32,1.337
			c0,0.782,0.462,0.817,2.378,0.817c1.696,0,19.034,0,23.088,0c0.54,0,0.854,0,0.854,0c4.053,0,21.391,0,23.086,0
			c1.918,0,2.379-0.035,2.379-0.817C193.434,180.42,193.116,179.867,193.116,179.867z"/>
	</g>
	<path fill="#B3B3B3" d="M240.748,47.825H94.333c-6.044,0-10.945,4.901-10.945,10.942v96.678c0,6.046,4.901,10.944,10.945,10.944
		h146.415c6.045,0,10.947-4.898,10.947-10.944V58.768C251.695,52.727,246.793,47.825,240.748,47.825L240.748,47.825z"/>
	<path fill="#DCDBDD" d="M240.748,47.825H94.333c-6.044,0-10.945,4.901-10.945,10.942v96.678c0,6.046,4.901,10.944,10.945,10.944
		h146.415c6.045,0,10.947-4.898,10.947-10.944V58.768C251.695,52.727,246.793,47.825,240.748,47.825z"/>
	<path d="M83.389,58.768v87.902h168.307V58.768c0-0.679-0.066-1.344-0.184-1.989H83.572C83.453,57.424,83.389,58.089,83.389,58.768z
		"/>
	<path fill="#4E4E4E" d="M83.389,58.768v87.902h168.307V58.768c0-0.679-0.066-1.344-0.184-1.989H83.572
		C83.453,57.424,83.389,58.089,83.389,58.768z"/>
	<g>
		<circle fill="#FF643A" cx="167.654" cy="94.775" r="24.03"/>
		<g>
			<path fill="#FFFFFF" d="M177.523,94.142l-16.438-9.492c-0.115-0.066-0.236-0.097-0.365-0.097c-0.354,0-0.737,0.277-0.737,0.736
				v18.981c0,0.617,0.666,0.892,1.102,0.639l16.438-9.495c0.334-0.189,0.369-0.507,0.369-0.633
				C177.893,94.65,177.857,94.332,177.523,94.142z"/>
			<path fill="#FFFFFF" d="M177.523,95.414l-16.438,9.495c-0.436,0.253-1.102-0.021-1.102-0.639V85.289
				c0-0.459,0.383-0.736,0.737-0.736c0.129,0,0.25,0.03,0.365,0.097l16.438,9.492c0.334,0.19,0.369,0.509,0.369,0.64
				C177.893,94.907,177.857,95.225,177.523,95.414z"/>
		</g>
		<g id="Play_10_">
			<g>
				<path fill="#FFFFFF" d="M118.49,131.727l-5.205-2.601c-0.006-0.003-0.013-0.003-0.019-0.005c-0.04-0.02-0.083-0.024-0.126-0.033
					c-0.043-0.01-0.084-0.024-0.126-0.026c-0.006,0-0.013-0.005-0.02-0.005c-0.033,0-0.062,0.015-0.093,0.02
					c-0.046,0.008-0.09,0.012-0.133,0.025c-0.041,0.017-0.076,0.043-0.112,0.065c-0.035,0.021-0.07,0.038-0.099,0.063
					c-0.036,0.034-0.061,0.074-0.088,0.112c-0.019,0.026-0.042,0.046-0.056,0.072c-0.004,0.007-0.003,0.016-0.006,0.021
					c-0.019,0.039-0.024,0.081-0.034,0.124c-0.01,0.043-0.024,0.084-0.026,0.127c0,0.008-0.004,0.013-0.004,0.021v5.201
					c0,0.006,0.004,0.011,0.004,0.02c0.002,0.044,0.016,0.084,0.026,0.127c0.01,0.044,0.016,0.084,0.034,0.124
					c0.002,0.008,0.002,0.014,0.006,0.02c0.03,0.062,0.07,0.115,0.115,0.162c0.01,0.01,0.022,0.015,0.032,0.025
					c0.046,0.041,0.098,0.076,0.152,0.103c0.018,0.009,0.038,0.018,0.057,0.024c0.071,0.026,0.147,0.046,0.223,0.046
					c0.001,0,0.001,0,0.001,0c0.001,0,0.001,0,0.001,0h0.004c0.096-0.003,0.185-0.025,0.268-0.064
					c0.006-0.005,0.013-0.002,0.018-0.005l5.205-2.601c0.22-0.11,0.359-0.336,0.359-0.581
					C118.849,132.062,118.71,131.839,118.49,131.727z M113.644,133.857v-3.099l3.1,1.55L113.644,133.857z"/>
			</g>
		</g>
		<g id="Pause_10_">
			<g>
				<path fill="#FFFFFF" d="M126.069,129.057c-0.359,0-0.649,0.291-0.649,0.651v5.201c0,0.357,0.291,0.65,0.649,0.65
					c0.36,0,0.65-0.293,0.65-0.65v-5.201C126.719,129.348,126.429,129.057,126.069,129.057z M129.97,129.057
					c-0.359,0-0.65,0.291-0.65,0.651v5.201c0,0.357,0.291,0.65,0.65,0.65c0.359,0,0.65-0.293,0.65-0.65v-5.201
					C130.62,129.348,130.329,129.057,129.97,129.057z"/>
			</g>
		</g>
		<g>
			<line fill="#FFFFFF" x1="137.058" y1="132.309" x2="208.238" y2="132.309"/>
			<path fill="#FFFFFF" d="M208.238,133.454h-71.18c-0.633,0-1.146-0.513-1.146-1.146s0.513-1.146,1.146-1.146h71.18
				c0.633,0,1.146,0.513,1.146,1.146S208.871,133.454,208.238,133.454z"/>
		</g>
		<g>
			<circle fill="#FFFFFF" cx="159.985" cy="132.309" r="2.023"/>
			<path fill="#FFFFFF" d="M159.984,135.478c-1.747,0-3.168-1.421-3.168-3.169c0-1.747,1.422-3.169,3.168-3.169
				c1.748,0,3.169,1.422,3.169,3.169C163.153,134.057,161.731,135.478,159.984,135.478z M159.984,131.431
				c-0.483,0-0.877,0.394-0.877,0.878s0.394,0.879,0.877,0.879c0.485,0,0.878-0.395,0.878-0.879S160.469,131.431,159.984,131.431z"
				/>
		</g>
		<g id="XMLID_711_">
			<path fill="#FFFFFF" d="M218.307,128.882c-0.154-0.046-0.324-0.018-0.441,0.072l-2.006,1.56h-0.994
				c-0.227,0-0.408,0.136-0.408,0.311v2.682c0,0.175,0.182,0.312,0.408,0.312h0.994l2.01,1.559c0.08,0.062,0.184,0.094,0.291,0.094
				c0.053,0,0.096-0.007,0.146-0.022c0.154-0.047,0.244-0.163,0.244-0.291v-5.982C218.551,129.047,218.461,128.931,218.307,128.882z
				 M217.73,134.394l-1.42-1.11c-0.078-0.059-0.172-0.094-0.281-0.094h-0.754v-2.047h0.754c0.109,0,0.203-0.036,0.281-0.094
				l1.42-1.11V134.394z M219.887,133.499c-0.082,0.07-0.194,0.105-0.307,0.105c-0.098,0-0.194-0.028-0.272-0.081
				c-0.169-0.115-0.184-0.316-0.034-0.444c1.021-0.88,0.107-1.733,0-1.827c-0.148-0.131-0.133-0.33,0.035-0.443
				c0.17-0.117,0.428-0.104,0.578,0.024C220.42,131.294,221.107,132.445,219.887,133.499z M221.119,134.34
				c-0.081,0.071-0.193,0.105-0.307,0.105c-0.096,0-0.193-0.026-0.271-0.08c-0.17-0.114-0.184-0.314-0.033-0.441
				c2.002-1.728,0.082-3.441-0.002-3.516c-0.148-0.13-0.133-0.328,0.036-0.443s0.427-0.105,0.577,0.024
				C221.145,130.011,223.611,132.189,221.119,134.34z"/>
		</g>
	</g>
	<rect x="26.571" y="132.354" opacity="0.1" fill="#1D1D1B" width="67.409" height="86.209"/>
	<rect x="229.109" y="26.266" opacity="0.1" fill="#1D1D1B" width="67.408" height="86.209"/>
	<rect x="34.117" y="125.4" fill="#FFFFFF" width="67.409" height="86.209"/>
	<rect x="34.117" y="125.4" fill="#FF643A" width="67.409" height="10.233"/>
	<circle fill="#ADFDF4" cx="43.508" cy="130.275" r="2.329"/>
	<circle fill="#ADFDF4" cx="51.892" cy="130.275" r="2.328"/>
	<circle fill="#ADFDF4" cx="60.276" cy="130.275" r="2.328"/>
	<circle fill="#ADFDF4" cx="92.471" cy="130.275" r="2.328"/>
	<rect x="60.275" y="145.905" opacity="0.3" fill="#FF643A" width="32.197" height="4.236"/>
	<rect x="60.275" y="155.301" opacity="0.3" fill="#FF643A" width="32.197" height="4.234"/>
	<rect x="60.275" y="164.696" opacity="0.3" fill="#FF643A" width="32.197" height="4.232"/>
	<rect x="44.178" y="145.905" fill="#4E4E4E" width="10.041" height="4.236"/>
	<rect x="44.178" y="155.301" fill="#4E4E4E" width="10.041" height="4.234"/>
	<rect x="44.178" y="164.696" fill="#4E4E4E" width="10.041" height="4.232"/>
	<rect x="43.508" y="196.284" opacity="0.3" fill="#FF643A" width="48.964" height="4.235"/>
	<rect x="43.508" y="175.05" fill="#4E4E4E" width="48.964" height="15.994"/>
	<rect x="236.445" y="19.721" fill="#FFFFFF" width="67.41" height="86.209"/>
	<rect x="236.445" y="19.721" fill="#FF643A" width="67.41" height="10.233"/>
	<path fill="#ADFDF4" d="M248.166,24.596c0,1.285-1.043,2.326-2.33,2.326c-1.283,0-2.328-1.041-2.328-2.326
		c0-1.287,1.045-2.329,2.328-2.329C247.123,22.267,248.166,23.309,248.166,24.596z"/>
	<circle fill="#ADFDF4" cx="254.221" cy="24.596" r="2.328"/>
	<circle fill="#ADFDF4" cx="262.605" cy="24.596" r="2.328"/>
	<circle fill="#ADFDF4" cx="294.801" cy="24.596" r="2.328"/>
	<rect x="262.604" y="79.933" opacity="0.3" fill="#FF643A" width="32.197" height="4.232"/>
	<rect x="246.508" y="79.933" fill="#4E4E4E" width="10.041" height="4.232"/>
	<rect x="245.836" y="90.604" opacity="0.3" fill="#FF643A" width="48.965" height="4.235"/>
	<g opacity="0.1">
		<path fill="#1D1D1B" d="M184.773,138.246c0.002,2.642-1.9,4.79-4.258,4.794l0,0c-2.354,0.005-4.268-2.138-4.271-4.779
			l-0.049-25.379c-0.004-2.643,1.9-4.79,4.256-4.795l0,0c2.356-0.005,4.268,2.138,4.272,4.78L184.773,138.246z"/>
		<path fill="#1D1D1B" d="M194.873,145.442l-0.021-12.171c-0.005-2.643-1.916-4.779-4.273-4.776
			c-2.356,0.005-4.259,2.149-4.255,4.791l0.022,12.171L194.873,145.442z"/>
		<path fill="#1D1D1B" d="M204.97,148.438l-0.022-12.171c-0.004-2.643-1.916-4.78-4.273-4.774c-2.355,0.004-4.26,2.148-4.256,4.79
			l0.023,12.171L204.97,148.438z"/>
		<path fill="#1D1D1B" d="M214.857,150.712l-0.023-12.173c-0.004-2.645-1.918-4.781-4.273-4.775
			c-2.356,0.001-4.259,2.147-4.254,4.792l0.021,12.171L214.857,150.712z"/>
		<path fill="#1D1D1B" d="M194.859,137.397c0,0,0.55,1.013,1.562-0.005l2.059,1.662l-6.125,0.285"/>
		<path fill="#1D1D1B" d="M184.907,136.444c0,0,0.548,1.015,1.56-0.002l2.058,1.659l-6.123,0.283"/>
		<path fill="#1D1D1B" d="M204.879,138.656c0,0,0.549,1.012,1.561-0.002l2.059,1.658l-6.124,0.285"/>
		<path fill="#1D1D1B" d="M214.855,149.841l0.021,11.134c0,0-1.83,9.573-6.969,14.729l-29.411,0.055l-7.097-11.894
			c0,0-9.08-16.112-10.54-18.36c-1.462-2.248,2.192-1.679,5.928-1.32c2.392,0.231,5.261,4.316,5.261,4.316l4.225,6.877
			l-0.033-18.375l36.049,2.943"/>
		<path fill="#1D1D1B" d="M183.686,112.245c-0.003-1.742-1.45-3.146-3.234-3.159c-1.782,0.019-3.223,1.43-3.219,3.171
			c0,0.75-0.045,1.874,0.248,2.461l2.98-0.007l2.986-0.004C183.736,114.119,183.688,112.993,183.686,112.245z"/>
		<polygon fill="#1D1D1B" points="210.646,180.385 176.426,180.45 176.419,175.762 210.641,175.697 		"/>
		<polygon fill="#1D1D1B" points="212.863,235.154 174.377,235.225 174.297,180.453 212.781,180.381 		"/>
		<path fill="#1D1D1B" d="M183.099,189.691c0.003,1.379-1.113,2.5-2.492,2.5c-1.38,0.003-2.499-1.111-2.501-2.49
			c-0.002-1.375,1.113-2.5,2.492-2.502C181.977,187.196,183.096,188.316,183.099,189.691z"/>
	</g>
	<g>
		<path fill="#FAD59E" d="M192.719,131.424c0.002,2.642-1.9,4.79-4.258,4.794l0,0c-2.354,0.005-4.268-2.138-4.271-4.779
			l-0.049-25.379c-0.004-2.643,1.9-4.79,4.256-4.795l0,0c2.356-0.005,4.268,2.138,4.272,4.78L192.719,131.424z"/>
		<path fill="#FAD59E" d="M202.818,138.62l-0.021-12.171c-0.005-2.643-1.916-4.779-4.273-4.776
			c-2.356,0.005-4.259,2.149-4.255,4.791l0.022,12.171L202.818,138.62z"/>
		<path fill="#FAD59E" d="M212.915,141.616l-0.022-12.171c-0.004-2.643-1.916-4.78-4.273-4.774c-2.355,0.004-4.26,2.148-4.256,4.79
			l0.023,12.171L212.915,141.616z"/>
		<path fill="#FAD59E" d="M222.803,143.89l-0.023-12.173c-0.004-2.645-1.918-4.781-4.273-4.775
			c-2.356,0.001-4.259,2.147-4.254,4.792l0.021,12.171L222.803,143.89z"/>
		<path fill="#FAD59E" d="M202.805,130.575c0,0,0.55,1.013,1.562-0.005l2.059,1.662l-6.125,0.285"/>
		<path fill="#FAD59E" d="M192.853,129.622c0,0,0.548,1.015,1.56-0.002l2.058,1.659l-6.123,0.283"/>
		<path fill="#FAD59E" d="M212.824,131.834c0,0,0.549,1.012,1.561-0.002l2.059,1.658l-6.124,0.285"/>
		<path fill="#FAD59E" d="M222.801,143.019l0.021,11.134c0,0-1.83,9.573-6.969,14.729l-29.411,0.055l-7.097-11.894
			c0,0-9.08-16.112-10.54-18.36c-1.462-2.248,2.192-1.679,5.928-1.32c2.392,0.231,5.261,4.316,5.261,4.316l4.225,6.877
			l-0.033-18.375l36.049,2.943"/>
		<path fill="#FAE2BE" d="M191.631,105.423c-0.003-1.742-1.45-3.146-3.234-3.159c-1.782,0.019-3.223,1.43-3.219,3.171
			c0,0.75-0.045,1.874,0.248,2.461l2.98-0.007l2.986-0.004C191.682,107.297,191.633,106.171,191.631,105.423z"/>
		<polygon fill="#FFFFFF" points="218.592,173.562 184.371,173.628 184.364,168.939 218.586,168.875 		"/>
		<polygon fill="#FF643A" points="220.809,235.119 182.322,235.189 182.242,173.631 220.727,173.559 		"/>
		<path fill="#5E5955" d="M191.044,182.869c0.003,1.379-1.113,2.5-2.492,2.5c-1.38,0.003-2.499-1.111-2.501-2.49
			c-0.002-1.375,1.113-2.5,2.492-2.502C189.922,180.374,191.041,181.494,191.044,182.869z"/>
	</g>
	<g>
		<ellipse fill="#4E4E4E" cx="270.122" cy="48.842" rx="8.319" ry="9.79"/>
		<path fill="#4E4E4E" d="M287.305,68.504c-0.26-6.014-4.363-10.834-9.514-10.949l-15.061-0.34
			c-5.373-0.123-9.855,4.918-10.074,11.289H287.305z"/>
	</g>
	<g>
		<rect x="86.381" y="16.308" fill="#DCDBDD" width="126.052" height="20.397"/>
	</g>
	<g>
		<rect x="189.768" y="16.308" fill="#FF643A" width="22.666" height="20.397"/>
	</g>
	<g opacity="0.1">
		<rect x="92.136" y="19.719" fill="#4E4E4E" width="92.632" height="13.262"/>
	</g>
	<g>
		<path fill="#FFFFFF" d="M206.443,30.031l-2.871-2.637c0.328-0.652,0.519-1.388,0.519-2.171c0-2.666-2.159-4.823-4.823-4.823
			c-2.662,0-4.822,2.157-4.822,4.823c0,2.662,2.16,4.825,4.822,4.825c0.785,0,1.517-0.191,2.17-0.521l2.637,2.871
			c0.261,0.277,0.684,0.285,0.955,0.02l1.434-1.43C206.729,30.718,206.72,30.289,206.443,30.031z M199.268,28.164
			c-1.625,0-2.939-1.314-2.939-2.94c0-1.624,1.314-2.942,2.939-2.942c1.627,0,2.946,1.318,2.946,2.942
			C202.214,26.85,200.895,28.164,199.268,28.164z"/>
	</g>
	<g>
		<path fill="#C6C6C5" d="M306.176,135.786c4.281,0.002,7.752,3.475,7.748,7.756v0.737c-0.002,4.283-3.473,7.751-7.756,7.751
			l-28.049-0.011l0.006-16.241L306.176,135.786z"/>
	</g>
	<g>
		<rect x="267.416" y="138.924" fill="#FFFFFF" width="10.705" height="9.947"/>
	</g>
	<g>
		<rect x="271.319" y="141.499" fill="#1D1D1B" width="2.898" height="1.054"/>
	</g>
	<g>
		<rect x="271.32" y="145.242" fill="#1D1D1B" width="2.896" height="1.056"/>
	</g>
	<path fill="#4E4E4E" d="M130.239,209.102c-0.287,0-0.552-0.164-0.678-0.426l-9.612-19.893c-0.141-0.29-0.08-0.638,0.149-0.864
		s0.577-0.281,0.866-0.138l19.893,9.946c0.274,0.138,0.438,0.427,0.414,0.732c-0.023,0.306-0.23,0.566-0.521,0.66l-4.182,1.333
		l4.578,4.578c0.294,0.295,0.294,0.771,0,1.065l-2.753,2.754c-0.282,0.282-0.782,0.282-1.065,0l-4.846-4.847l-1.527,4.583
		c-0.098,0.291-0.361,0.494-0.667,0.514C130.271,209.102,130.256,209.102,130.239,209.102z"/>
	<polygon fill="#C6C6C5" points="71.649,97.61 72.437,90.122 69.977,90.121 67.516,90.121 68.305,97.61 66.124,100.423 
		69.977,100.423 73.831,100.422 	"/>
	<g>
		<line fill="#6E6058" x1="69.977" y1="100.423" x2="69.977" y2="104.475"/>
		<polygon fill="#6E6058" points="70.727,100.423 69.977,104.475 69.227,100.423 		"/>
	</g>
	<polygon fill="#FF643A" points="242.547,209.192 236.695,213.93 238.434,215.67 240.174,217.41 244.912,211.557 248.443,211.11 
		245.719,208.386 242.992,205.662 	"/>
	<g>
		<line fill="#6E6058" x1="245.719" y1="208.386" x2="248.582" y2="205.521"/>
		<polygon fill="#6E6058" points="245.188,207.855 248.582,205.521 246.248,208.916 		"/>
	</g>
	<polygon fill="#FF643A" points="68.163,72.506 62.31,77.243 64.049,78.983 65.789,80.724 70.527,74.87 74.058,74.424 
		71.333,71.699 68.608,68.976 	"/>
	<g>
		<line fill="#6E6058" x1="71.333" y1="71.699" x2="74.198" y2="68.834"/>
		<polygon fill="#6E6058" points="70.803,71.169 74.198,68.834 71.864,72.229 		"/>
	</g>
	<polygon fill="#4E4E4E" points="241.217,190.008 242.004,182.52 239.545,182.519 237.084,182.519 237.873,190.008 235.691,192.82 
		239.545,192.82 243.398,192.819 	"/>
	<g>
		<line fill="#6E6058" x1="239.545" y1="192.82" x2="239.545" y2="196.872"/>
		<polygon fill="#6E6058" points="240.295,192.82 239.545,196.872 238.795,192.82 		"/>
	</g>
	<polygon fill="#C6C6C5" points="315.131,71.336 314.344,78.824 316.803,78.826 319.264,78.826 318.475,71.336 320.656,68.523 
		316.803,68.523 312.949,68.525 	"/>
	<g>
		<line fill="#6E6058" x1="316.803" y1="68.523" x2="316.803" y2="64.473"/>
		<polygon fill="#6E6058" points="316.053,68.523 316.803,64.473 317.553,68.523 		"/>
	</g>
	<polygon fill="#4E4E4E" points="300.416,124.152 307.904,124.94 307.906,122.48 307.906,120.02 300.416,120.809 297.604,118.627 
		297.604,122.48 297.605,126.334 	"/>
	<g>
		<line fill="#6E6058" x1="297.604" y1="122.48" x2="293.553" y2="122.48"/>
		<polygon fill="#6E6058" points="297.604,123.23 293.553,122.48 297.604,121.73 		"/>
	</g>
	<polygon fill="#C6C6C5" points="161.481,208.072 160.693,215.561 163.153,215.562 165.614,215.562 164.825,208.072 167.007,205.26 
		163.153,205.26 159.3,205.262 	"/>
	<g>
		<line fill="#6E6058" x1="163.153" y1="205.26" x2="163.153" y2="201.209"/>
		<polygon fill="#6E6058" points="162.403,205.26 163.153,201.209 163.903,205.26 		"/>
	</g>
</g>
<g id="text">
</g>
<g id="Layer_1">
</g>
<g id="Layer_3">
</g>
<g id="Layer_4">
</g>
<g id="Layer_5">
</g>
<g id="Layer_6">
</g>
<g id="Layer_7">
</g>
</svg>
