<?xml version="1.0" encoding="utf-8"?>
<!-- Generator: Adobe Illustrator 18.0.0, SVG Export Plug-In . SVG Version: 6.00 Build 0)  -->
<svg version="1.1" xmlns="http://www.w3.org/2000/svg" xmlns:xlink="http://www.w3.org/1999/xlink" x="0px" y="0px"
	 viewBox="0 0 1400 980" style="enable-background:new 0 0 1400 980;" xml:space="preserve">
<style type="text/css">
	.st0{fill:#FFFFFF;}
	.st1{fill:#DF1E26;stroke:#000000;stroke-width:4;stroke-miterlimit:10;}
	.st2{font-family:'ArialMT';}
	.st3{font-size:44.9833;}
	.st4{fill:#A71E22;}
	.st5{fill:#E8444E;stroke:#000000;stroke-width:4;stroke-linecap:round;stroke-linejoin:round;stroke-miterlimit:10;}
	.st6{fill:#C6C5C5;stroke:#000000;stroke-width:4;stroke-miterlimit:10;}
	.st7{fill:#8FBF3F;}
	.st8{fill:#F6AF2A;}
	.st9{fill:#D3D3D3;stroke:#000000;stroke-width:4;stroke-linecap:round;stroke-linejoin:round;stroke-miterlimit:10;}
	.st10{fill:#BDBFC1;}
	.st11{fill:#FFFFFF;stroke:#000000;stroke-width:3.521;stroke-miterlimit:10;}
	.st12{fill:#2654A9;stroke:#000000;stroke-width:4;stroke-linecap:round;stroke-linejoin:round;stroke-miterlimit:10;}
	.st13{fill:#2654A9;stroke:#000000;stroke-width:4;stroke-miterlimit:10;}
	.st14{fill-rule:evenodd;clip-rule:evenodd;fill:#2654A9;}
	.st15{fill:#FFFFFF;stroke:#000000;stroke-width:3;stroke-miterlimit:10;}
	.st16{fill:none;stroke:#000000;stroke-width:3;stroke-linecap:round;stroke-linejoin:round;stroke-miterlimit:10;}
	.st17{fill:#23BCA7;stroke:#000000;stroke-width:4;stroke-linecap:round;stroke-linejoin:round;stroke-miterlimit:10;}
	.st18{fill-rule:evenodd;clip-rule:evenodd;fill:#23BCA7;}
	.st19{fill:#DF1E26;}
	.st20{fill:#757677;}
	.st21{fill:#DC1F27;}
	.st22{font-size:33.6968;}
	.st23{fill:#DF1E26;stroke:#000000;stroke-width:3.521;stroke-linecap:round;stroke-linejoin:round;stroke-miterlimit:10;}
	.st24{fill:#E8444E;stroke:#000000;stroke-width:3.521;stroke-linecap:round;stroke-linejoin:round;stroke-miterlimit:10;}
	.st25{fill:#DF1E26;stroke:#000000;stroke-width:3.521;stroke-miterlimit:10;}
	.st26{fill:#404041;}
	.st27{fill:#D5D9DF;}
	.st28{fill:#4594B4;stroke:#000000;stroke-width:4.727;stroke-linecap:round;stroke-linejoin:round;stroke-miterlimit:10;}
	.st29{fill:#57C4F2;stroke:#000000;stroke-width:4.727;stroke-linecap:round;stroke-linejoin:round;stroke-miterlimit:10;}
	.st30{fill:#FFFFFF;stroke:#000000;stroke-width:4;stroke-miterlimit:10;}
	.st31{fill:#FE735E;stroke:#000000;stroke-width:4;stroke-miterlimit:10;}
	.st32{fill:#FBBD3A;stroke:#000000;stroke-width:4;stroke-miterlimit:10;}
	.st33{fill:#FFE6A6;stroke:#000000;stroke-width:4.727;stroke-miterlimit:10;}
	.st34{fill:#FFFFFF;stroke:#000000;stroke-width:4.727;stroke-miterlimit:10;}
	.st35{fill:#23BCA7;stroke:#000000;stroke-width:4.727;stroke-linecap:round;stroke-linejoin:round;stroke-miterlimit:10;}
	.st36{fill:#9EA0A3;}
	.st37{fill:#CCCFD2;}
	.st38{fill:#57C4F2;stroke:#000000;stroke-width:4.161;stroke-linecap:round;stroke-linejoin:round;stroke-miterlimit:10;}
	.st39{fill:#57C4F2;stroke:#000000;stroke-width:4.1609;stroke-linecap:round;stroke-linejoin:round;stroke-miterlimit:10;}
	.st40{fill-rule:evenodd;clip-rule:evenodd;fill:#0096CC;}
	.st41{fill-rule:evenodd;clip-rule:evenodd;fill:#FFFFFF;}
</style>
<g id="Layer_2">
	<rect x="0" y="0" class="st0" width="1400" height="980"/>
</g>
<g id="Layer_3">
	<g>
		<path class="st1" d="M197.7,68.4L86.7,68.8c-1.4,0-3.1,1.2-3.1,2.7l1.1,283.9c0,1.4,1.7,2.3,3.2,2.3l219.3-0.9
			c1.4,0,2.5-0.9,2.5-2.3l-0.8-190.6L197.7,68.4z"/>
		<g>
			<path class="st0" d="M174.7,239.4c-1.5,1.2-3.1,2.3-4.6,3.5c-2.7,2.2-5.2,4.6-7.2,7.4c-0.6,0.9-1.3,1.9-1.3,3.4
				c0.8-0.3,1.5-0.3,2.1-0.7c1.7-1.2,3.5-2.4,5-3.9c4.4-4.4,7.9-9.6,11.3-14.8c4.7-7.3,9.1-14.6,12.9-22.4c0.2-0.4,0.3-1,0.2-1.5
				c-0.6-4.6-1.4-9.2-1.9-13.8c-0.3-2.8-0.2-5.6,0.6-8.4c0.3-1.1,1-1.8,2.1-2.1c4.4-1.1,6.5,1.5,6,5.6c-0.1,0.8-0.3,1.5-0.7,2.2
				c0-0.3,0-0.7,0-1c0-2.1-0.7-4-1.9-5.7c-0.3-0.4-0.9-0.9-1.1-0.8c-0.4,0.2-0.8,0.7-1,1.2c-0.3,1-0.5,2-0.6,3c-0.6,5,0,10,0.9,14.9
				c0.1,0,0.2,0,0.3,0.1c1-2.9,1.9-5.7,2.9-8.6c0.1,0,0.1,0,0.2,0c-0.3,2.4-0.6,4.8-1.1,7.1c-0.3,1.7-0.8,3.3-1.1,4.9
				c-0.1,0.3-0.1,0.6,0,0.9c1.7,5.7,4.3,10.9,8.3,15.3c1.8,1.9,4,3.4,6,5c0.3,0.2,0.8,0.2,1.2,0.2c5.2-0.3,10.4-0.5,15.6,0.6
				c1.4,0.3,2.7,0.8,3.9,1.5c1.3,0.7,1.7,2,1.4,3.5c-2.1-2.1-4.8-2.9-7.7-3c-3.2-0.2-6.3-0.2-9.5-0.3c-0.2,0-0.5,0-0.8,0.1
				c0.1,0.2,0.1,0.3,0.2,0.4c4.2,2.2,8.4,4.3,13.2,5.2c1.4,0.3,2.9,0.6,4.2-0.7c0,1.6-1.1,2.8-2.7,2.8c-1.9,0-3.8-0.2-5.6-0.6
				c-5-1.2-9.6-3.4-13.9-6.1c-0.8-0.5-1.5-0.6-2.3-0.5c-8.7,0.8-17.2,2.3-25.6,4.3c-0.7,0.2-1.2,0.5-1.6,1.2
				c-2.8,4.2-5.6,8.3-9.2,11.8c-1.5,1.4-3.1,2.8-4.9,3.8c-2.4,1.4-5,1-7-1c-0.4-0.4-0.6-1.4-0.4-2c0.5-1.2,1.1-2.4,1.9-3.4
				c2.9-3.4,6.8-5.6,10.8-7.6c0.8-0.4,1.7-0.8,2.5-1.1C174.7,239.3,174.7,239.3,174.7,239.4z M206.7,231.1
				c-5.6-4.4-9.4-9.9-12.1-16.1c-2,3.7-3.8,7.3-5.8,10.8c-2,3.5-4.2,6.9-6.5,10.5C190.3,233.6,198.4,232.1,206.7,231.1z"/>
		</g>
		<g>
			<text transform="matrix(1.0509 -4.235135e-003 4.030007e-003 1 139.3546 321.8326)" class="st0 st2 st3">.PDF</text>
		</g>
		<polygon class="st4" points="198.6,165.4 306.9,165 307.3,262 		"/>
		<polygon class="st5" points="198.6,165.4 309,165 198.2,68.4 		"/>
	</g>
</g>
<g id="Layer_4">
	<g>
		<g>
			<path class="st6" d="M199.2,441.9l-105.1,0.4c-1.4,0-3,1.2-3,2.5l1.1,268.8c0,1.4,1.6,2.2,3,2.2L303,715c1.4,0,2.3-0.8,2.3-2.2
				l-0.7-180.4L199.2,441.9z"/>
			<g>
				<text transform="matrix(1.0509 -4.235135e-003 4.030007e-003 1 139.8741 706.2894)" class="st0 st2 st3">.JPG</text>
			</g>
			<g>
				<g>
					
						<rect x="129.3" y="539.8" transform="matrix(1 -4.032170e-003 4.032170e-003 1 -2.4326 0.7842)" class="st0" width="127.9" height="127.9"/>
					<g>
						<polygon class="st7" points="234.6,592.2 188.8,639.6 177,614.8 129.6,667.9 257.4,667.4 257.2,616.9 						"/>
					</g>
				</g>
				<circle class="st8" cx="159" cy="573.1" r="16.7"/>
			</g>
			<polygon class="st9" points="200.2,533.7 304.7,533.3 199.8,441.9 			"/>
			<polygon class="st10" points="200.2,533.7 304.6,533.3 304.9,625.2 			"/>
		</g>
	</g>
</g>
<g id="Layer_7">
	<g>
		<polygon class="st11" points="456.2,36.2 452.7,36.2 443.2,36.2 443.2,294.6 452.7,294.6 456.2,294.6 597,294.6 635.4,256.2 
			635.4,36.2 		"/>
		<g>
			<polygon class="st12" points="430.8,139.3 430.8,63.8 443.2,76 443.2,151.7 			"/>
		</g>
		<g>
			<polygon class="st12" points="597,256.2 635.4,256.2 597,294.6 			"/>
		</g>
		<g>
			<rect x="430.8" y="63.8" class="st13" width="152.2" height="75.5"/>
		</g>
		<g>
			<path class="st0" d="M457.6,111.8h5.3c3,0,5.3-0.8,6.6-2.4c1.4-1.6,2-4.2,2-7.8c0-3.6-0.6-6.2-1.9-7.9c-1.3-1.7-3.3-2.5-6-2.5
				h-6.1V111.8L457.6,111.8z M451.2,117.5V85.6h12.5c4.9,0,8.6,1.3,11,4c2.4,2.6,3.6,6.7,3.6,12c0,2.9-0.4,5.5-1.3,7.7
				c-0.9,2.2-2.2,4-3.9,5.4c-1.3,1-2.7,1.7-4.3,2.2c-1.6,0.4-3.9,0.7-6.8,0.7H451.2L451.2,117.5z M485.3,101.6
				c0,3.5,0.8,6.2,2.3,8.2c1.6,1.9,3.7,2.9,6.5,2.9c2.8,0,5-1,6.6-2.9c1.6-2,2.4-4.7,2.4-8.2c0-3.5-0.8-6.2-2.4-8.2
				c-1.6-2-3.8-2.9-6.6-2.9c-2.8,0-5,1-6.5,2.9C486.1,95.3,485.3,98.1,485.3,101.6L485.3,101.6z M478.7,101.6
				c0-5.1,1.4-9.2,4.2-12.3c2.8-3,6.6-4.5,11.4-4.5c4.8,0,8.6,1.5,11.4,4.5c2.8,3,4.2,7.1,4.2,12.3c0,5.1-1.4,9.2-4.2,12.3
				c-2.8,3-6.6,4.6-11.4,4.6c-4.8,0-8.6-1.5-11.4-4.6C480.1,110.8,478.7,106.7,478.7,101.6L478.7,101.6z M539.4,106.6
				c-0.3,3.6-1.6,6.5-4.2,8.7c-2.6,2.1-5.9,3.2-10,3.2c-4.7,0-8.4-1.5-11-4.4c-2.6-2.9-3.9-7.1-3.9-12.4c0-5.4,1.3-9.6,4-12.5
				c2.7-2.9,6.5-4.3,11.5-4.3c4.1,0,7.3,1,9.7,3c2.4,2,3.7,4.8,3.9,8.4h-6.5c-0.3-1.8-1-3.2-2.2-4.1c-1.2-0.9-2.8-1.4-4.9-1.4
				c-2.9,0-5.1,0.9-6.6,2.8c-1.5,1.9-2.3,4.6-2.3,8.2c0,3.5,0.7,6.2,2.2,8c1.5,1.9,3.6,2.8,6.4,2.8c2,0,3.6-0.5,4.9-1.5
				c1.3-1,2.1-2.5,2.5-4.4H539.4L539.4,106.6z M537.7,117.5h7.6l6.5-11.1l6.5,11.1h7.6l-10-16.3l10-15.6h-7.6l-6.5,11.2l-6.5-11.2
				h-7.6l10,15.6L537.7,117.5z"/>
		</g>
		<g>
			<g>
				<path class="st14" d="M491.9,178.1v49.1l80.8,13.6v-76.2L491.9,178.1L491.9,178.1z M483.7,171.2l97.1-16.3v95.4l-97.1-16.3
					V171.2z"/>
			</g>
			<g>
				<path class="st14" d="M518,213.3l0.9-2.3l2.1-5.2l7.5-17.4h7.6v17.8c0,2.3-0.2,4.7-0.6,7.1c0.2-0.4,1.1-3,3-7.8l6.8-17.2h8.7
					l-14.3,32.9h-10.4v-14c0-2.3,0.1-4.8,0.3-7.3c-0.5,2-1.4,4.6-2.6,7.9l-5.7,13.4h-9.8l-1.1-32.9h8.3l-0.2,16.5
					C518.5,208.8,518.3,211.7,518,213.3z"/>
			</g>
		</g>
	</g>
</g>
<g id="Layer_5">
	<circle class="st15" cx="740.8" cy="296.8" r="7.7"/>
	<circle class="st15" cx="1026.7" cy="839.9" r="7.7"/>
	<circle class="st15" cx="263" cy="395.7" r="7.7"/>
	<circle class="st15" cx="268.1" cy="783.9" r="7.7"/>
	<g>
		<line class="st15" x1="745.8" y1="868.7" x2="745.8" y2="884.9"/>
		<line class="st15" x1="737.7" y1="876.8" x2="753.8" y2="876.8"/>
	</g>
	<g>
		<line class="st15" x1="185.9" y1="771.1" x2="185.9" y2="787.3"/>
		<line class="st15" x1="177.8" y1="779.2" x2="194" y2="779.2"/>
	</g>
	<g>
		<line class="st15" x1="690.5" y1="110.5" x2="690.5" y2="126.7"/>
		<line class="st15" x1="682.4" y1="118.6" x2="698.6" y2="118.6"/>
	</g>
	<g>
		<line class="st15" x1="1052" y1="170.9" x2="1052" y2="187.1"/>
		<line class="st15" x1="1043.9" y1="179" x2="1060.1" y2="179"/>
	</g>
	<g>
		<line class="st15" x1="1059.4" y1="70.3" x2="1059.4" y2="86.5"/>
		<line class="st15" x1="1051.3" y1="78.4" x2="1067.5" y2="78.4"/>
	</g>
	<line class="st15" x1="703.6" y1="956.4" x2="729.6" y2="956.4"/>
	<line class="st15" x1="718.9" y1="947.7" x2="736" y2="947.7"/>
	<line class="st15" x1="75.6" y1="812.5" x2="101.6" y2="812.5"/>
	<line class="st15" x1="90.9" y1="803.9" x2="108" y2="803.9"/>
	<line class="st15" x1="355.3" y1="394" x2="298.3" y2="394"/>
	<line class="st15" x1="340.7" y1="401.6" x2="323.6" y2="401.6"/>
	<line class="st15" x1="1052" y1="255.9" x2="995.1" y2="255.9"/>
	<line class="st15" x1="1037.5" y1="263.6" x2="1020.3" y2="263.6"/>
	<line class="st15" x1="1083.6" y1="928.8" x2="1026.7" y2="928.8"/>
	<line class="st15" x1="1069" y1="936.4" x2="1051.9" y2="936.4"/>
	<line class="st15" x1="557.3" y1="908.2" x2="654.5" y2="908.2"/>
	<line class="st15" x1="276.5" y1="88.4" x2="339.9" y2="88.4"/>
	<line class="st15" x1="313.7" y1="79.7" x2="355.5" y2="79.7"/>
	<line class="st15" x1="265.2" y1="48.4" x2="362.5" y2="48.4"/>
	<g>
		<line class="st16" x1="493.1" y1="865.4" x2="493.1" y2="874.6"/>
		<line class="st16" x1="493.1" y1="885.4" x2="493.1" y2="894.6"/>
		<line class="st16" x1="507.7" y1="880" x2="498.6" y2="880"/>
		<line class="st16" x1="487.7" y1="880" x2="478.5" y2="880"/>
	</g>
	<g>
		<line class="st16" x1="292.3" y1="467.2" x2="292.3" y2="476.4"/>
		<line class="st16" x1="292.3" y1="487.3" x2="292.3" y2="496.4"/>
		<line class="st16" x1="306.9" y1="481.8" x2="297.7" y2="481.8"/>
		<line class="st16" x1="286.9" y1="481.8" x2="277.7" y2="481.8"/>
	</g>
	<g>
		<line class="st16" x1="680.5" y1="291.1" x2="680.5" y2="300.3"/>
		<line class="st16" x1="680.5" y1="311.2" x2="680.5" y2="320.3"/>
		<line class="st16" x1="695.1" y1="305.7" x2="685.9" y2="305.7"/>
		<line class="st16" x1="675.1" y1="305.7" x2="665.9" y2="305.7"/>
	</g>
</g>
<g id="Layer_6">
	<g>
		<polygon class="st11" points="788.8,31.6 785.3,31.6 775.8,31.6 775.8,289.7 785.3,289.7 788.8,289.7 929.5,289.7 967.8,251.4 
			967.8,31.6 		"/>
		<g>
			<polygon class="st17" points="763.5,134.6 763.5,59.2 775.8,71.4 775.8,146.9 			"/>
		</g>
		<g>
			<polygon class="st17" points="929.5,251.4 967.8,251.4 929.5,289.7 			"/>
		</g>
		<g>
			<rect x="763.5" y="59.2" class="st17" width="152.2" height="75.4"/>
		</g>
		<g>
			<path class="st0" d="M781.1,112.8V80.9h6.6v11.9h13.2V80.9h6.6v31.9h-6.6V98.7h-13.2v14.1H781.1L781.1,112.8z M820.7,112.8V86.6
				h-9.5v-5.7h25.4v5.7h-9.4v26.2H820.7L820.7,112.8z M840.4,112.8V80.9h9.7l6.3,24.3l6.3-24.3h9.8v31.9h-6.2V87.1l-6.5,25.7h-6.7
				l-6.6-25.7v25.7H840.4L840.4,112.8z M879.1,112.8V80.9h6.6v26h15.6v5.9H879.1z"/>
		</g>
		<g>
			<polygon class="st18" points="849.6,212 815.5,196.9 815.5,191.1 849.6,174 849.6,184 828.7,193.6 849.6,202.1 			"/>
		</g>
		<g>
			<polygon class="st18" points="882.5,168 864.1,218.7 852.5,218.7 870.8,168 			"/>
		</g>
		<g>
			<polygon class="st18" points="885,202.1 905.9,193.6 885,184 885,174 919.1,191.1 919.1,196.9 885,212 			"/>
		</g>
	</g>
</g>
<g id="Layer_8">
	<g>
		<path class="st11" d="M1321.3,311.5h-194.4c-2.2,0-3.9-1.8-3.9-3.9V56.6c0-2.2,1.8-3.9,3.9-3.9h194.4c2.2,0,3.9,1.8,3.9,3.9v250.9
			C1325.2,309.7,1323.5,311.5,1321.3,311.5z"/>
		<g>
			<path class="st11" d="M1310.3,221.9h-176.2c-1.3,0-2.4-1.1-2.4-2.4V95.1c0-1.3,1.1-2.4,2.4-2.4h176.2c1.3,0,2.4,1.1,2.4,2.4
				v124.3C1312.7,220.8,1311.6,221.9,1310.3,221.9z"/>
		</g>
		<g>
			<path class="st19" d="M1191.1,184.9c-2.3,1.6-4.7,3.3-6.9,4.9c-4.1,3-7.8,6.4-10.8,10.4c-1,1.3-2,2.6-1.9,4.7
				c1.2-0.4,2.3-0.5,3.1-1c2.6-1.7,5.2-3.4,7.5-5.4c6.6-6.2,11.9-13.4,16.9-20.7c7-10.1,13.8-20.4,19.5-31.3
				c0.3-0.6,0.4-1.5,0.3-2.2c-0.9-6.4-2-12.9-2.7-19.3c-0.5-3.9-0.2-7.9,1-11.7c0.5-1.6,1.6-2.6,3.2-3c6.6-1.5,9.8,2.2,9,7.8
				c-0.1,1.1-0.5,2.1-1,3.1c0-0.5,0-1,0-1.5c0.1-2.9-1.1-5.5-2.8-7.9c-0.4-0.5-1.3-1.3-1.7-1.1c-0.6,0.2-1.2,1-1.4,1.7
				c-0.4,1.4-0.7,2.8-0.9,4.2c-1,7-0.1,14,1.3,20.8c0.1,0,0.3,0.1,0.4,0.1c1.5-4,2.9-8,4.4-12c0.1,0,0.2,0,0.2,0.1
				c-0.5,3.3-1,6.7-1.6,10c-0.4,2.3-1.2,4.6-1.7,6.9c-0.1,0.4-0.1,0.9,0,1.3c2.5,8,6.3,15.4,12.4,21.5c2.6,2.7,5.9,4.8,9,7.1
				c0.4,0.3,1.2,0.3,1.8,0.3c7.8-0.4,15.6-0.6,23.4,0.9c2,0.4,4,1.1,5.9,2.1c2,1,2.6,2.8,2,4.9c-3.2-3-7.2-4-11.5-4.3
				c-4.7-0.3-9.5-0.4-14.2-0.5c-0.4,0-0.7,0-1.3,0.1c0.2,0.2,0.2,0.4,0.3,0.5c6.3,3.1,12.6,6.1,19.7,7.4c2.2,0.4,4.4,0.8,6.3-1
				c-0.1,2.2-1.7,4-4.1,3.9c-2.8-0.1-5.6-0.3-8.4-0.9c-7.5-1.7-14.3-4.8-20.8-8.7c-1.1-0.7-2.2-0.8-3.5-0.7c-13,1-25.7,3.1-38.4,5.9
				c-1.1,0.2-1.8,0.7-2.5,1.6c-4.2,5.8-8.5,11.6-13.9,16.5c-2.2,2-4.7,3.8-7.4,5.3c-3.6,2-7.5,1.3-10.4-1.4c-0.6-0.6-0.9-2-0.6-2.8
				c0.7-1.7,1.7-3.4,2.9-4.7c4.4-4.8,10.2-7.8,16.2-10.5c1.2-0.6,2.5-1.1,3.7-1.6C1191,184.8,1191,184.8,1191.1,184.9z
				 M1239.1,173.5c-8.4-6.2-14-13.9-18-22.7c-3,5.2-5.7,10.2-8.7,15.1c-3,4.9-6.4,9.6-9.8,14.7
				C1214.5,176.8,1226.5,174.8,1239.1,173.5z"/>
		</g>
		<path class="st11" d="M1291.2,284.2h-134.3c-1.3,0-2.3-1.1-2.3-2.3v-32.6c0-1.3,1.1-2.3,2.3-2.3h134.3c1.3,0,2.3,1.1,2.3,2.3v32.6
			C1293.6,283.2,1292.5,284.2,1291.2,284.2z"/>
		<g>
			<rect x="1170.5" y="254.5" class="st20" width="107.1" height="4.6"/>
			<rect x="1170.5" y="263.3" class="st20" width="107.1" height="4.6"/>
			<rect x="1170.5" y="272.1" class="st20" width="107.2" height="4.6"/>
		</g>
		<g>
			<path class="st21" d="M1264.5,90.1h-84.7c-1.9,0-3.5-1.6-3.5-3.5V58.8c0-1.9,1.6-3.5,3.5-3.5h84.7c1.9,0,3.5,1.6,3.5,3.5v27.8
				C1268,88.6,1266.5,90.1,1264.5,90.1z"/>
			<text transform="matrix(1.0509 0 0 1 1188.8096 84.9264)" class="st0 st2 st22">PDF</text>
		</g>
	</g>
</g>
<g id="Layer_9">
	<g>
		<polygon class="st11" points="1144.7,369.7 1141.2,369.7 1131.6,369.7 1131.6,628.8 1141.2,628.8 1144.7,628.8 1286,628.8 
			1324.4,590.4 1324.4,369.7 		"/>
		<g>
			<polygon class="st23" points="1119.2,473.1 1119.2,397.4 1131.6,409.6 1131.6,485.5 			"/>
		</g>
		<g>
			<polygon class="st24" points="1286,590.4 1324.4,590.4 1286,628.8 			"/>
		</g>
		<g>
			<rect x="1119.2" y="397.4" class="st25" width="136.5" height="75.7"/>
		</g>
		<g>
			<path class="st0" d="M1167.7,425.1l-4.7,14.5h9.4L1167.7,425.1L1167.7,425.1z M1163.7,418.3h8.1l12.3,34h-7.3l-2.3-7h-13.2
				l-2.2,7h-7.4L1163.7,418.3L1163.7,418.3z M1194.6,452.2h6.7l11.6-34h-7.6l-7.4,25.4l-7.2-25.4h-7.7L1194.6,452.2L1194.6,452.2z
				 M1216.4,452.2v-34h7v34H1216.4z"/>
		</g>
		<g>
			<polygon class="st25" points="1203.2,489.6 1264.6,527.3 1203.2,565.1 			"/>
		</g>
	</g>
</g>
<g id="Layer_10">
	<path class="st26" d="M563,500.2l-2.1-1.9c-0.1-0.1-0.1-0.3,0-0.5c0.1-0.1,0.3-0.1,0.5,0l1.6,1.5l4.3-3.9c0.1-0.1,0.4-0.1,0.5,0
		c0.1,0.1,0.1,0.3,0,0.5L563,500.2z"/>
	<path class="st26" d="M563,726.8l-2.1-1.9c-0.1-0.1-0.1-0.3,0-0.5c0.1-0.1,0.3-0.1,0.5,0l1.6,1.5l4.3-3.9c0.1-0.1,0.4-0.1,0.5,0
		c0.1,0.1,0.1,0.3,0,0.5L563,726.8z"/>
	<path class="st26" d="M878.5,500.1l-2.1-1.9c-0.1-0.1-0.1-0.3,0-0.5c0.1-0.1,0.3-0.1,0.5,0l1.6,1.5l4.3-3.9c0.1-0.1,0.4-0.1,0.5,0
		c0.1,0.1,0.1,0.3,0,0.5L878.5,500.1z"/>
	<g>
		<g>
			<path class="st27" d="M1016.6,817.9H466.3c-27,0-48.9-21.9-48.9-48.9V420.1c0-24.5,19.9-44.4,44.4-44.4h559.3
				c24.5,0,44.4,19.9,44.4,44.4V769C1065.5,796,1043.6,817.9,1016.6,817.9z"/>
			<path class="st28" d="M999.7,791.9H449.3c-27,0-48.9-21.9-48.9-48.9V394c0-24.5,19.9-44.4,44.4-44.4h559.3
				c24.5,0,44.4,19.9,44.4,44.4V743C1048.6,770,1026.7,791.9,999.7,791.9z"/>
			<path class="st29" d="M982.4,791.9H432c-27,0-48.9-21.9-48.9-48.9V394.5c0-24.8,20.1-44.9,44.9-44.9h558.4
				c24.8,0,44.9,20.1,44.9,44.9V743C1031.3,770,1009.4,791.9,982.4,791.9z"/>
			<circle class="st28" cx="417.3" cy="562.7" r="13.5"/>
			<path class="st30" d="M981.4,380H542.5H459c-9.5,0-17.2,8.1-17.2,18v336.5c0,11.2,8.7,20.2,19.4,20.2h518.1
				c10.7,0,19.4-9.1,19.4-20.2v-58.1V398C998.6,388.1,990.9,380,981.4,380z"/>
			<g>
				<rect x="460.8" y="704" class="st31" width="518.9" height="33.6"/>
				<rect x="460.8" y="431" class="st30" width="518.9" height="272.9"/>
				<g>
					<path class="st32" d="M630.2,476.6l0.5,131.6l178.3,25.4c3.2,0,3.8-6.7,3.8-9.9l16.5-163.5c0.4-3.4-2.1-4.3-5.4-4.3l-69.2,0.3
						c-1.6,0-3.1-0.1-4.3,0.9l-15.5,12.4l-99.3,0.4C632.2,469.9,629.7,473.3,630.2,476.6z"/>
					<path class="st30" d="M640.7,489.4l-7,106.2l169.4-0.7l10.7-107.9c-0.4-2.7-2.7-4.7-5.4-4.7l-162.4,0.7
						C642.8,483.1,640.7,485.1,640.7,489.4z"/>
					<path class="st32" d="M593.9,503.4l19.9,131.9l195.1-0.8L787.8,501c-0.4-2.7-2.7-5.3-5.4-5.2l-183.1,0.7
						C596,496.5,593.4,500.1,593.9,503.4z"/>
				</g>
			</g>
			<rect x="460.8" y="397.4" class="st31" width="518.9" height="33.6"/>
			<path class="st33" d="M346.9,805.7c0.8,14.7-3.9,19.8-7.3,24.7c-2.2,3.2-58.5,89.5-96.9,148.5h102.8
				c34.6-58.6,85.6-144.8,87.7-148.1c3.2-4.9,14.9-19.6,14.9-57.6c0-32.8-17.5-41.1-17.8-58c-0.1-6.4-0.3-10-0.3-10l0,0l-0.2-47.9
				c0-9.4-8.1-17-18-17h0c-10,0-18.1,7.6-18.1,17.1l0.3,58c-2.2,12.2-10.1,21.8-12.2,30.3l-0.1-116.2c0,0-35.2,51.3-38.9,56.5
				c-3.7,5.1-3.4,9.6-3.4,14C339.4,704.3,346.1,791,346.9,805.7z"/>
			<polygon class="st34" points="329.4,833.9 309.6,863 390.6,912.9 408.5,882.8 			"/>
			<polygon class="st35" points="356.9,978.9 395.6,915.9 305.7,860.5 232.1,978.9 			"/>
		</g>
	</g>
	<g>
		<g>
			<circle class="st36" cx="384.8" cy="892.3" r="8"/>
		</g>
	</g>
	<g>
		<path class="st37" d="M692.2,692.8c22,7.6,33.4,23.8,52.1,54c0.3,0.5,11.9,14.2,18.9,18.7c8.6,5.5,35.2,22.6,43.5,41.8
			c0,0.1-5.3,3.3-5.3,3.3l11.6,43.8l-6.3,2.9c0,0,16.3,57.9,34.2,121.5h99.2c-31.6-99.9-58.3-195.5-56.6-205.4c2-11.8,4.9-21,7-26.6
			c0.8-1.8,1.6-3.7,2.3-5.6c0,0,0-0.1,0-0.1l0.1,0c4.6-13.3,5.4-28.2,1-42.7L871.5,625l-0.6,0.1l-4.3-15.5
			c-2.1-7.5-9.8-11.8-17.3-9.8c-7.5,2.1-11.8,9.8-9.8,17.3l3.1,11.2l-4,0.4l-8.7-31.3c-2.3-8.3-10.9-13.2-19.2-10.9l-0.3,0.1
			c-8.3,2.3-13.2,10.9-10.9,19.2l7.3,26.4l-4.9,0.5l-10.7-38.6c-2.3-8.3-10.9-13.2-19.2-10.9l-0.3,0.1c-8.3,2.3-13.2,10.9-10.9,19.2
			l9.4,33.7l-5,0.6l-26.2-92.1c-2.4-8.4-11-13.2-19.4-10.9c-8.4,2.3-13.4,11.1-11.1,19.5l24.7,87.1v0l6.1,21
			c0.1,0.4,0.3,0.8,0.5,1.2l4.3,14.9c0,0,5.7,21.5,0.5,17.5c0,0-28.2-31.6-48.9-31.8c-11.2-0.1-13.8,5-15.8,11.1
			C678,680.1,680.4,688.8,692.2,692.8z"/>
		<g>
			<path class="st33" d="M699.9,674.2c22,7.6,33.4,23.8,52.1,54c0.3,0.5,11.9,14.2,18.9,18.7c8.6,5.5,35.2,22.9,43.5,42.1
				c0.1,0.3,31.8,99.2,60.7,189.9h78.6c-34.1-106.4-64.3-213.3-62.6-223.7c2-11.8,4.9-21.2,7-26.8c0.8-1.8,1.6-3.8,2.3-5.7
				c0,0,0-0.1,0-0.1l0.1,0c4.6-13.3,5.4-28.2,1-42.7l-22.4-73.6l-0.6,0.1l-4.3-15.5c-2.1-7.5-9.8-11.8-17.3-9.8h0
				c-7.5,2.1-11.8,9.8-9.8,17.3l3.1,11.2l-4,0.4l-8.7-31.3c-2.3-8.3-10.9-13.2-19.2-10.9l-0.3,0.1c-8.3,2.3-13.2,10.9-10.9,19.2
				l7.3,26.4l-4.9,0.5L799,575.6c-2.3-8.3-10.9-13.2-19.2-10.9l-0.3,0.1c-8.3,2.3-13.2,10.9-10.9,19.2l9.4,33.7l-5,0.6l-26.2-92.1
				c-2.4-8.4-11-13.2-19.4-10.9h0c-8.4,2.3-13.3,11.1-10.9,19.5l24.8,87.1h0l0,0l6,21c0.1,0.4,0.3,0.8,0.4,1.2l4.3,14.9
				c0,0,5.7,21.5,0.5,17.5c0,0-28.2-31.6-48.9-31.8c-11.2-0.1-15,2.9-16.4,9.5C685.8,660.1,688.1,670.1,699.9,674.2z"/>
		</g>
		<polygon class="st34" points="905.5,780.8 916.4,815.2 822.3,840.8 813.5,805.7 		"/>
		<polygon class="st35" points="967.7,978.9 921,814.2 816.6,842.4 854.7,978.9 		"/>
		<g>
			<g>
				<circle class="st36" cx="834" cy="822" r="8.2"/>
			</g>
		</g>
	</g>
</g>
<g id="Layer_11">
	<g>
		<polygon class="st11" points="1144.6,668.9 1141,668.9 1131.3,668.9 1131.3,933.6 1141,933.6 1144.6,933.6 1288.9,933.6 
			1328.2,894.3 1328.2,668.9 		"/>
		<g>
			<polygon class="st38" points="1118.6,774.6 1118.6,697.2 1131.3,709.7 1131.3,787.2 			"/>
		</g>
		<g>
			<rect x="1118.6" y="697.2" class="st38" width="139.4" height="77.4"/>
		</g>
		<g>
			<path class="st0" d="M1145.4,746.9h5.7c3.3,0,5.7-0.9,7.2-2.6c1.5-1.7,2.2-4.6,2.2-8.4c0-3.9-0.7-6.7-2.1-8.6
				c-1.4-1.8-3.5-2.7-6.5-2.7h-6.6V746.9L1145.4,746.9z M1138.4,753.2v-34.7h13.6c5.3,0,9.3,1.4,11.9,4.3c2.6,2.9,3.9,7.2,3.9,13.1
				c0,3.2-0.5,6-1.4,8.4c-1,2.4-2.4,4.4-4.2,5.8c-1.4,1.1-2.9,1.9-4.7,2.4c-1.8,0.5-4.2,0.7-7.4,0.7H1138.4L1138.4,753.2z
				 M1179.3,735.9c0,3.8,0.9,6.8,2.6,8.9c1.7,2.1,4.1,3.2,7.1,3.2c3.1,0,5.5-1.1,7.2-3.2c1.7-2.1,2.6-5.1,2.6-8.9
				c0-3.8-0.9-6.8-2.6-8.9c-1.7-2.1-4.1-3.2-7.2-3.2c-3.1,0-5.4,1-7.1,3.2C1180.1,729.1,1179.3,732,1179.3,735.9L1179.3,735.9z
				 M1172,735.9c0-5.6,1.5-10,4.6-13.3c3.1-3.3,7.2-4.9,12.4-4.9c5.2,0,9.3,1.6,12.4,5c3.1,3.3,4.6,7.7,4.6,13.3
				c0,5.6-1.5,10-4.6,13.3c-3.1,3.3-7.2,5-12.4,5c-5.2,0-9.3-1.7-12.4-5C1173.5,745.9,1172,741.5,1172,735.9L1172,735.9z
				 M1241.8,741.3c-0.3,3.9-1.8,7.1-4.6,9.4c-2.8,2.3-6.4,3.5-10.9,3.5c-5.1,0-9.1-1.6-12-4.8c-2.9-3.2-4.3-7.7-4.3-13.5
				c0-5.9,1.5-10.4,4.4-13.6c2.9-3.1,7.1-4.7,12.5-4.7c4.4,0,7.9,1.1,10.5,3.2c2.6,2.2,4,5.2,4.2,9.2h-7c-0.3-2-1.1-3.5-2.4-4.5
				c-1.3-1-3.1-1.5-5.3-1.5c-3.1,0-5.5,1-7.2,3c-1.6,2-2.5,5-2.5,8.9c0,3.8,0.8,6.7,2.4,8.7c1.6,2.1,3.9,3.1,6.9,3.1
				c2.2,0,3.9-0.6,5.3-1.7c1.4-1.1,2.3-2.7,2.7-4.8H1241.8z"/>
		</g>
		<g>
			<polygon class="st39" points="1288.9,894.3 1328.2,894.3 1288.9,933.6 			"/>
		</g>
		<g>
			<rect x="1195.8" y="815.3" class="st40" width="79" height="77.6"/>
		</g>
		<g>
			<rect x="1202.6" y="822" class="st41" width="65.3" height="64.1"/>
		</g>
		<g>
			<path class="st40" d="M1221.7,867.1l1.2-3.1l2.8-6.9l10-23.1h10v23.7c0,3.1-0.3,6.2-0.8,9.4c0.2-0.6,1.5-4,4-10.3l9-22.8h11.6
				l-19,43.7h-13.8v-18.5c0-3.1,0.1-6.3,0.4-9.7c-0.7,2.6-1.8,6.1-3.5,10.4l-7.6,17.8h-13l-1.5-43.7h11l-0.3,21.9
				C1222.3,861.2,1222.1,864.9,1221.7,867.1z"/>
		</g>
	</g>
</g>
</svg>
